<?xml version="1.0" encoding="UTF-8" standalone="no"?>
<!-- Created with Inkscape (http://www.inkscape.org/) -->

<svg
   xmlns:dc="http://purl.org/dc/elements/1.1/"
   xmlns:cc="http://creativecommons.org/ns#"
   xmlns:rdf="http://www.w3.org/1999/02/22-rdf-syntax-ns#"
   xmlns:svg="http://www.w3.org/2000/svg"
   xmlns="http://www.w3.org/2000/svg"
   xmlns:sodipodi="http://sodipodi.sourceforge.net/DTD/sodipodi-0.dtd"
   xmlns:inkscape="http://www.inkscape.org/namespaces/inkscape"
   width="201"
   height="340.99997"
   id="svg2"
   version="1.1"
   inkscape:version="0.48.3.1 r9886"
   sodipodi:docname="mismatchedriverwidth.svg">
  <defs
     id="defs4" />
  <sodipodi:namedview
     id="base"
     pagecolor="#ffffff"
     bordercolor="#666666"
     borderopacity="1.0"
     inkscape:pageopacity="0.0"
     inkscape:pageshadow="2"
     inkscape:zoom="0.7"
     inkscape:cx="79.930013"
     inkscape:cy="65.842857"
     inkscape:document-units="px"
     inkscape:current-layer="layer1"
     showgrid="true"
     inkscape:window-width="1600"
     inkscape:window-height="838"
     inkscape:window-x="-8"
     inkscape:window-y="-8"
     inkscape:window-maximized="1"
     fit-margin-top="0"
     fit-margin-left="0"
     fit-margin-right="0"
     fit-margin-bottom="0">
    <inkscape:grid
       type="xygrid"
       id="grid2985"
       empspacing="5"
       visible="true"
       enabled="true"
       snapvisiblegridlinesonly="true"
       originx="-49.5px"
       originy="-639.50002px" />
  </sodipodi:namedview>
  <metadata
     id="metadata7">
    <rdf:RDF>
      <cc:Work
         rdf:about="">
        <dc:format>image/svg+xml</dc:format>
        <dc:type
           rdf:resource="http://purl.org/dc/dcmitype/StillImage" />
      </cc:Work>
    </rdf:RDF>
  </metadata>
  <g
     inkscape:label="Layer 1"
     inkscape:groupmode="layer"
     id="layer1"
     transform="translate(-49.5,-71.862183)">
    <path
       style="fill:#aad400;stroke:#000000;stroke-width:1px;stroke-linecap:butt;stroke-linejoin:miter;stroke-opacity:1"
       d="m 80,152.36218 70,-69.999997 60,19.999997 30,50 -100,40 z"
       id="path3017"
       inkscape:connector-curvature="0" />
    <path
       style="fill:#0000ff;stroke:#0000ff;stroke-width:1px;stroke-linecap:butt;stroke-linejoin:miter;stroke-opacity:1"
       d="M 80,182.36218 190,72.362183 z"
       id="path3019"
       inkscape:connector-curvature="0" />
    <path
       style="fill:#aad400;stroke:#000000;stroke-width:1px;stroke-linecap:butt;stroke-linejoin:miter;stroke-opacity:1"
       d="m 80,372.36216 70,-69.99998 60,19.99998 30,50 -100,40 z"
       id="path3017-1"
       inkscape:connector-curvature="0" />
    <path
       style="fill:#aad400;stroke:#000000;stroke-width:1px;stroke-linecap:butt;stroke-linejoin:miter;stroke-opacity:1"
       d="m 80,372.36218 30,-120 30,-10 10,60 z"
       id="path3832"
       inkscape:connector-curvature="0" />
    <path
       style="fill:#aad400;stroke:#000000;stroke-width:1px;stroke-linecap:butt;stroke-linejoin:miter;stroke-opacity:1"
       d="m 150,302.36218 70,-50 10,60 -20,10 z"
       id="path3834"
       inkscape:connector-curvature="0" />
    <path
       style="fill:#aad400;stroke:#000000;stroke-width:1px;stroke-linecap:butt;stroke-linejoin:miter;stroke-opacity:1"
       d="m 140,242.36218 80,10 -70,50 z"
       id="path3836"
       inkscape:connector-curvature="0" />
    <path
       style="fill:none;stroke:#ff0000;stroke-width:1px;stroke-linecap:butt;stroke-linejoin:miter;stroke-opacity:1"
       d="m 80,402.36218 110,-110 z"
       id="path3840"
       inkscape:connector-curvature="0" />
    <path
       style="fill:none;stroke:#008cff;stroke-width:1px;stroke-linecap:butt;stroke-linejoin:miter;stroke-opacity:1"
       d="m 50,372.36218 110,-110 z"
       id="path3842"
       inkscape:connector-curvature="0" />
    <path
       style="fill:#00ffff;stroke:#0000ff;stroke-width:0.71428573;stroke-opacity:1"
       d="m 89.332331,157.63684 c -4.213559,-2.82221 -7.668917,-5.29326 -7.678572,-5.49122 -0.0097,-0.19797 15.368634,-15.74362 34.173971,-34.5459 l 34.19153,-34.185966 10.46323,3.459971 10.46322,3.45997 -36.25927,36.264495 c -19.9426,19.94548 -36.581879,36.24322 -36.97618,36.21722 -0.394302,-0.026 -4.16437,-2.35636 -8.377929,-5.17857 l 0,0 z"
       id="path3844"
       inkscape:connector-curvature="0" />
    <path
       style="fill:none;stroke:#008cff;stroke-width:1px;stroke-linecap:butt;stroke-linejoin:miter;stroke-opacity:1"
       d="m 140,312.36218 -20,-120 z"
       id="path3846"
       inkscape:connector-curvature="0" />
    <path
       style="fill:none;stroke:#008cff;stroke-width:1px;stroke-linecap:butt;stroke-linejoin:miter;stroke-opacity:1"
       d="m 160,292.36218 -10,-60 z"
       id="path3848"
       inkscape:connector-curvature="0" />
    <path
       style="fill:none;stroke:#008cff;stroke-width:1px;stroke-linecap:butt;stroke-linejoin:miter;stroke-opacity:1"
       d="m 220,232.36218 -80,60 z"
       id="path3850"
       inkscape:connector-curvature="0" />
    <path
       style="fill:none;stroke:#ff0000;stroke-width:1px;stroke-linecap:butt;stroke-linejoin:miter;stroke-opacity:1"
       d="m 250,252.36218 -90,60 z"
       id="path3852"
       inkscape:connector-curvature="0" />
    <path
       style="fill:#00ffff;stroke:#008cff;stroke-width:0.17857143;stroke-opacity:1"
       d="m 89.399823,377.94776 -8.446721,-5.64314 34.629788,-34.62979 34.6298,-34.62979 7.38835,2.4571 c 4.0636,1.35141 7.45517,2.49523 7.53682,2.54182 0.0817,0.0466 -1.10362,0.92044 -2.63393,1.94188 -1.53031,1.02144 -2.78239,1.91888 -2.78239,1.99432 0,0.0754 0.12416,0.31441 0.2759,0.53106 0.27519,0.39287 0.28437,0.38824 3.51932,-1.77322 l 3.24341,-2.16712 2.28426,0.75388 c 1.25634,0.41464 2.28426,0.76849 2.28426,0.78633 0,0.0178 -16.53349,16.5581 -36.74108,36.75613 l -36.741067,36.72368 -8.44672,-5.64314 z"
       id="path3856"
       inkscape:connector-curvature="0" />
    <path
       style="fill:#00ffff;stroke:#008cff;stroke-width:0.17857143;stroke-opacity:1"
       d="m 158.77983,304.6664 -7.45958,-2.50219 34.04017,-24.31407 c 18.72208,-13.37274 34.08914,-24.31407 34.14901,-24.31407 0.0599,0 0.69,3.49553 1.4003,7.76785 0.71029,4.27232 1.33441,7.98991 1.38692,8.2613 0.093,0.48068 -0.62528,0.97397 -27.75724,19.0625 -15.31899,10.21299 -27.95336,18.56272 -28.07636,18.55496 -0.12301,-0.008 -3.58046,-1.14008 -7.68322,-2.51628 l 0,0 z"
       id="path3858"
       inkscape:connector-curvature="0" />
    <path
       style="fill:#00ffff;stroke:#008cff;stroke-width:0.17857143;stroke-opacity:1"
       d="m 81.257609,369.92112 c 0.0029,-0.14728 2.085637,-8.5781 4.628334,-18.73514 l 4.623086,-18.46735 22.380591,-22.38119 c 21.18991,-21.19048 22.38695,-22.35505 22.50005,-21.88979 0.0657,0.27027 0.98387,5.70044 2.04036,12.06705 l 1.92089,11.57565 -29.04928,29.04928 c -15.977104,15.97711 -29.046918,28.92878 -29.044031,28.78149 z"
       id="path3860"
       inkscape:connector-curvature="0" />
    <path
       style="fill:#00ffff;stroke:#008cff;stroke-width:0.17857143;stroke-opacity:1"
       d="m 140.30938,310.61069 c -0.0543,-0.2319 -0.96858,-5.66508 -2.03163,-12.07373 l -1.93282,-11.65209 4.45454,-4.45721 c 2.44999,-2.45147 4.47421,-4.43753 4.49825,-4.41349 0.024,0.0241 0.32952,1.76877 0.67883,3.87716 0.34931,2.10839 0.67577,4.01199 0.72547,4.23022 0.0779,0.34227 -0.4007,0.76601 -3.48323,3.08374 -1.96546,1.47782 -3.57357,2.75333 -3.57357,2.83446 0,0.0811 0.15879,0.29122 0.35288,0.46687 0.34387,0.3112 0.43604,0.25704 3.61407,-2.12383 2.77361,-2.07789 3.28024,-2.39516 3.38864,-2.12203 0.0701,0.17663 0.62737,3.36055 1.23838,7.07539 l 1.11094,6.75424 -4.47097,4.47097 c -3.98978,3.98978 -4.48161,4.4256 -4.56978,4.04933 l 0,0 z"
       id="path3862"
       inkscape:connector-curvature="0" />
    <path
       style="fill:#00ffff;stroke:#008cff;stroke-width:0.17857143;stroke-opacity:1"
       d="m 149.30155,294.60687 c -0.61326,-3.70658 -1.1555,-6.91356 -1.20498,-7.12659 -0.0772,-0.33249 0.56938,-0.8826 4.56521,-3.88399 4.2246,-3.17322 4.66369,-3.45947 4.74718,-3.0948 0.0506,0.22101 0.49442,2.85274 0.98626,5.84827 1.13069,6.88648 0.95209,6.20566 1.60294,6.11014 0.29695,-0.0436 0.53862,-0.17057 0.53703,-0.28219 -0.002,-0.11162 -0.4809,-3.05444 -1.06514,-6.5396 -0.58423,-3.48516 -1.00481,-6.38772 -0.93461,-6.45014 0.0702,-0.0624 8.82065,-6.62885 19.44546,-14.59209 l 19.31782,-14.47861 10.3658,1.29689 c 5.70119,0.71329 10.41055,1.34164 10.46524,1.39633 0.0547,0.0547 -15.0708,10.93038 -33.6122,24.1682 -18.54139,13.23782 -33.79923,24.13597 -33.90631,24.2181 -0.13575,0.10413 -0.53223,-1.89082 -1.3097,-6.58992 z"
       id="path3864"
       inkscape:connector-curvature="0" />
    <path
       style="fill:#00ffff;stroke:#008cff;stroke-width:0.17857143;stroke-opacity:1"
       d="m 147.80873,285.50446 c -0.0415,-0.0753 -0.38624,-2.04704 -0.7661,-4.38173 l -0.69067,-4.2449 4.45102,-4.45369 c 2.44806,-2.44953 4.47107,-4.43364 4.49558,-4.40913 0.14229,0.14228 1.81201,10.75955 1.70667,10.8522 -0.23277,0.20473 -8.6951,6.51787 -8.91017,6.64725 -0.11599,0.0698 -0.24483,0.0653 -0.28633,-0.01 z"
       id="path3866"
       inkscape:connector-curvature="0" />
    <path
       style="fill:#00ffff;stroke:#008cff;stroke-width:0.17857143;stroke-opacity:1"
       d="m 146.07043,275.27789 c -0.002,-0.0489 -1.20362,-7.2777 -2.67061,-16.06407 -1.46698,-8.78638 -2.62973,-16.01274 -2.58389,-16.05858 0.0858,-0.0858 10.43195,1.16624 10.54137,1.27565 0.0336,0.0336 0.88165,4.98478 1.88459,11.00264 l 1.82352,10.94158 -4.49581,4.49581 c -2.4727,2.4727 -4.49732,4.45584 -4.49917,4.40697 z"
       id="path3868"
       inkscape:connector-curvature="0" />
    <path
       style="fill:#00ffff;stroke:#008cff;stroke-width:0.17857143;stroke-opacity:1"
       d="m 136.00589,284.81187 c -0.29544,-1.42265 -6.38645,-38.3159 -6.33328,-38.36063 0.034,-0.0286 2.25602,-0.78152 4.93772,-1.67308 3.2859,-1.09243 4.89825,-1.55177 4.94457,-1.40864 0.0378,0.11681 1.29313,7.59087 2.7896,16.60901 l 2.72087,16.39662 -4.4762,4.4762 c -4.33503,4.33504 -4.47957,4.45994 -4.58328,3.96052 z"
       id="path3870"
       inkscape:connector-curvature="0" />
  </g>
</svg>
