<?xml version="1.0" encoding="UTF-8" standalone="no"?>
<!-- Created with Inkscape (http://www.inkscape.org/) -->

<svg
   xmlns:dc="http://purl.org/dc/elements/1.1/"
   xmlns:cc="http://creativecommons.org/ns#"
   xmlns:rdf="http://www.w3.org/1999/02/22-rdf-syntax-ns#"
   xmlns:svg="http://www.w3.org/2000/svg"
   xmlns="http://www.w3.org/2000/svg"
   xmlns:sodipodi="http://sodipodi.sourceforge.net/DTD/sodipodi-0.dtd"
   xmlns:inkscape="http://www.inkscape.org/namespaces/inkscape"
   width="36"
   height="46"
   id="svg4496"
   version="1.1"
   inkscape:version="0.48.3.1 r9886"
   sodipodi:docname="New document 8">
  <defs
     id="defs4498" />
  <sodipodi:namedview
     id="base"
     pagecolor="#ffffff"
     bordercolor="#666666"
     borderopacity="1.0"
     inkscape:pageopacity="0.0"
     inkscape:pageshadow="2"
     inkscape:zoom="5.6"
     inkscape:cx="10.355211"
     inkscape:cy="16.535875"
     inkscape:document-units="px"
     inkscape:current-layer="layer1"
     showgrid="true"
     fit-margin-top="0"
     fit-margin-left="0"
     fit-margin-right="0"
     fit-margin-bottom="0"
     inkscape:window-width="1600"
     inkscape:window-height="838"
     inkscape:window-x="-8"
     inkscape:window-y="-8"
     inkscape:window-maximized="1">
    <inkscape:grid
       type="xygrid"
       id="grid4542"
       empspacing="5"
       visible="true"
       enabled="true"
       snapvisiblegridlinesonly="true"
       originx="-84.5px"
       originy="-789.5px" />
  </sodipodi:namedview>
  <metadata
     id="metadata4501">
    <rdf:RDF>
      <cc:Work
         rdf:about="">
        <dc:format>image/svg+xml</dc:format>
        <dc:type
           rdf:resource="http://purl.org/dc/dcmitype/StillImage" />
        <dc:title></dc:title>
      </cc:Work>
    </rdf:RDF>
  </metadata>
  <g
     inkscape:label="Layer 1"
     inkscape:groupmode="layer"
     id="layer1"
     transform="translate(-84.5,-216.86218)">
    <path
       style="fill:#aad400;stroke:#000000;stroke-width:1px;stroke-linecap:butt;stroke-linejoin:miter;stroke-opacity:1"
       d="m 85,247.36218 5,-5 -5,-10 z"
       id="path4558"
       inkscape:connector-curvature="0" />
    <path
       style="fill:#aad400;stroke:#000000;stroke-width:1px;stroke-linecap:butt;stroke-linejoin:miter;stroke-opacity:1"
       d="m 85,247.36218 10,10 15,-5 10,-15 -30,5 -5,5 z"
       id="path4560"
       inkscape:connector-curvature="0" />
    <path
       style="fill:#aad400;stroke:#000000;stroke-width:1px;stroke-linecap:butt;stroke-linejoin:miter;stroke-opacity:1"
       d="m 120,237.36218 -25,-15 -10,10 5,10 z"
       id="path4562"
       inkscape:connector-curvature="0" />
    <path
       style="fill:none;stroke:#0000ff;stroke-width:1px;stroke-linecap:butt;stroke-linejoin:miter;stroke-opacity:1"
       d="m 95,262.36218 0,-45 z"
       id="path4564"
       inkscape:connector-curvature="0" />
    <path
       style="fill:#00ffff;stroke:#0000ff;stroke-width:0.17857143;stroke-opacity:1"
       d="m 90.052775,251.64895 -4.284579,-4.28745 2.231008,-2.22409 2.231007,-2.22409 2.053572,-0.34694 c 1.129464,-0.19082 2.074627,-0.32729 2.100362,-0.30327 0.02573,0.024 0.02573,3.11034 0,6.85848 l -0.04679,6.8148 -4.284579,-4.28744 z"
       id="path5074"
       inkscape:connector-curvature="0" />
    <path
       style="fill:#00ffff;stroke:#0000ff;stroke-width:0.17857143;stroke-opacity:1"
       d="m 88.012723,237.03417 -2.308098,-4.61357 4.361008,-4.35828 4.361007,-4.35828 0,8.66938 0,8.66937 -1.919643,0.30425 c -1.055804,0.16734 -1.979613,0.30345 -2.05291,0.30247 -0.0733,-8.9e-4 -1.171911,-2.07788 -2.441364,-4.61534 z"
       id="path5076"
       inkscape:connector-curvature="0" />
    <path
       style="fill:#00ffff;stroke:#0000ff;stroke-width:0.17857143;stroke-opacity:1"
       d="m 85.507612,240.3967 0.0095,-5.62397 1.880559,3.73386 1.880559,3.73386 -1.890102,1.89011 -1.890103,1.8901 0.0095,-5.62396 z"
       id="path5078"
       inkscape:connector-curvature="0" />
  </g>
</svg>
